<?xml version="1.0" encoding="utf-8"?>
<!-- Generator: Adobe Illustrator 25.0.0, SVG Export Plug-In . SVG Version: 6.00 Build 0)  -->
<svg version="1.1" id="Capa_1" xmlns="http://www.w3.org/2000/svg" xmlns:xlink="http://www.w3.org/1999/xlink" x="0px" y="0px"
	 viewBox="0 0 512 512" style="enable-background:new 0 0 512 512;" xml:space="preserve">
<style type="text/css">
	.st0{fill:#E3E0E4;}
	.st1{fill:#D4CFD5;}
	.st2{fill:#C5BEC6;}
</style>
<g>
	<path class="st0" d="M469.5,256c0,48.1-15.9,92.4-42.7,128.1c-39,51.8-96,76.5-165.8,76.5c-117.9,0-208.5-86.7-208.5-204.6
		c0-68.4,22.2-129.3,72.3-168.4c36.2-28.3,81.8-45.1,131.3-45.1C373.9,42.5,469.5,138.1,469.5,256z"/>
	<path class="st1" d="M434,374c-38.2,57.6-103.7,95.5-178,95.5c-117.9,0-213.5-95.6-213.5-213.5c0-74.3,37.9-139.7,95.5-178
		c-22.4,33.8-35.5,74.4-35.5,118c0,117.9,95.6,213.5,213.5,213.5C359.6,409.5,400.2,396.4,434,374z"/>
	<path class="st1" d="M194,224c0,5.2-1.1,10.2-3,14.8c-5.8,13.6-19.1,17.7-34.8,17.7c-21,0-30.7-10-30.7-31
		c0-15.7,2.1-30.6,15.6-36.4c4.6-2,9.6-3.1,14.9-3.1C177,186,194,203,194,224L194,224z"/>
	<path class="st1" d="M288.5,383.5c0,8.7-2.9,16.7-7.8,23.1c-6.9,9.1-17.9,8.2-30.2,8.2c-21,0-38-10.3-38-31.3s17-38,38-38
		S288.5,362.5,288.5,383.5L288.5,383.5z"/>
	<path class="st2" d="M280.7,406.6c-6.9,9.1-17.9,14.9-30.2,14.9c-21,0-38-17-38-38c0-0.2,0-0.5,0-0.7
		C233.3,394.4,256.3,402.5,280.7,406.6z"/>
	<path class="st1" d="M378.5,172.5c0,4.4-1.2,8.6-3.4,12.1c-4.1,6.6-10.7,9.3-18.9,9.3c-12.7,0-21.4-8.5-21.4-21.2
		c0-9.2,3.1-17.3,10.9-21c3-1.4,6.3-2.2,9.8-2.2C368.2,149.5,378.5,159.8,378.5,172.5L378.5,172.5z"/>
	<path class="st1" d="M395.5,348.5c0,3-0.6,5.9-1.7,8.6c-3.4,8.5-11.7,10.1-21.3,10.1c-12.7,0-16.4-5.8-16.4-18.5
		c0-11.1,1.2-20.6,11.7-22.7c1.5-0.3,3-0.5,4.6-0.5C385.2,325.5,395.5,335.8,395.5,348.5L395.5,348.5z"/>
	<path class="st2" d="M190.9,238.9c-5.8,13.6-19.3,23.1-34.9,23.1c-21,0-38-17-38-38c0-15.7,9.5-29.1,23.1-34.9
		c-2,4.6-3.1,9.6-3.1,14.9c0,21,17,38,38,38C181.3,242,186.4,240.9,190.9,238.9z"/>
	<path class="st2" d="M376.8,181.1c-3.4,8.4-11.7,14.4-21.3,14.4c-12.7,0-23-10.3-23-23c0-11.2,8-20.6,18.7-22.6
		c-1.1,2.6-1.7,5.6-1.7,8.6c0,12.7,10.3,23,23,23C374,181.5,375.4,181.4,376.8,181.1z"/>
	<path class="st2" d="M393.8,357.1c-3.4,8.5-11.7,14.4-21.3,14.4c-12.7,0-23-10.3-23-23c0-11.2,8-20.6,18.7-22.6
		c-1.1,2.6-1.7,5.5-1.7,8.6c0,12.7,10.3,23,23,23C391,357.5,392.4,357.4,393.8,357.1z"/>
	<circle class="st1" cx="264.5" cy="110" r="15.5"/>
	<circle class="st1" cx="254" cy="243" r="17.5"/>
	<circle class="st2" cx="94" cy="298" r="14.5"/>
	<circle class="st1" cx="400" cy="271" r="14.5"/>
	<circle class="st1" cx="163.5" cy="149.5" r="7.3"/>
	<circle class="st2" cx="152.5" cy="351.5" r="7.3"/>
	<g>
		<circle class="st1" cx="345.5" cy="399.5" r="7.3"/>
		<circle class="st1" cx="429.5" cy="218.5" r="7.3"/>
		<circle class="st1" cx="325.5" cy="107.5" r="7.3"/>
	</g>
</g>
</svg>
