<?xml version="1.0" encoding="utf-8"?>
<!-- Generator: Adobe Illustrator 17.0.0, SVG Export Plug-In . SVG Version: 6.00 Build 0)  -->
<!DOCTYPE svg PUBLIC "-//W3C//DTD SVG 1.1//EN" "http://www.w3.org/Graphics/SVG/1.1/DTD/svg11.dtd">
<svg version="1.1" id="Capa_1" xmlns="http://www.w3.org/2000/svg" xmlns:xlink="http://www.w3.org/1999/xlink" x="0px" y="0px"
	 width="334.371px" height="380.563px" viewBox="0 0 334.371 380.563" enable-background="new 0 0 334.371 380.563"
	 xml:space="preserve">
<g>
	<path fill="#F2F2F2" d="M246.018,355.08H88.353c-36.64,0-66.619-29.978-66.619-66.619V68.619C21.734,31.979,51.713,2,88.353,2
		h157.665c36.64,0,66.619,29.979,66.619,66.619v219.842C312.637,325.102,282.658,355.08,246.018,355.08z"/>
	<path fill="#C70E1B" d="M141.093,178.54H21.734V81.943h119.359c26.675,0,48.299,21.624,48.299,48.299v0
		C189.392,156.916,167.768,178.54,141.093,178.54z"/>
	<g>
		<path fill="#FFFFFF" d="M64.921,139.06H52.838v12.571h-8.054v-42.715c6.712,0,13.425-0.062,20.137-0.062
			C85.791,108.853,85.852,139.06,64.921,139.06z M52.838,131.676h12.082c10.314,0,10.252-15.134,0-15.134H52.838V131.676z"/>
		<path fill="#FFFFFF" d="M123.622,129.906c0.182,10.801-6.407,21.725-21.358,21.725c-5.248,0-11.533,0-16.781,0v-42.715
			c5.249,0,11.534,0,16.781,0C116.91,108.915,123.438,119.349,123.622,129.906z M93.477,143.88h8.787
			c9.703,0,13.547-7.079,13.364-14.035c-0.183-6.652-4.088-13.303-13.364-13.303h-8.787V143.88z"/>
		<path fill="#FFFFFF" d="M130.208,151.63v-42.655h30.694v7.75h-22.639v11.654h21.419v7.446h-21.419v15.804H130.208z"/>
	</g>
	<path fill="#D9D9D9" d="M254.898,227.001H79.473c-3.496,0-6.356,2.86-6.356,6.356l0,0c0,3.496,2.86,6.356,6.356,6.356h175.425
		c3.496,0,6.356-2.86,6.356-6.356l0,0C261.254,229.861,258.394,227.001,254.898,227.001z"/>
	<path fill="#D9D9D9" d="M254.898,249.883H79.473c-3.496,0-6.356,2.86-6.356,6.356l0,0c0,3.496,2.86,6.356,6.356,6.356h175.425
		c3.496,0,6.356-2.86,6.356-6.356l0,0C261.254,252.743,258.394,249.883,254.898,249.883z"/>
	<path fill="#D9D9D9" d="M254.898,272.764H79.473c-3.496,0-6.356,2.86-6.356,6.356l0,0c0,3.496,2.86,6.356,6.356,6.356h175.425
		c3.496,0,6.356-2.86,6.356-6.356l0,0C261.254,275.625,258.394,272.764,254.898,272.764z"/>
	<path fill="#D9D9D9" d="M254.898,295.646H79.473c-3.496,0-6.356,2.86-6.356,6.356l0,0c0,3.496,2.86,6.356,6.356,6.356h175.425
		c3.496,0,6.356-2.86,6.356-6.356l0,0C261.254,298.506,258.394,295.646,254.898,295.646z"/>
</g>
</svg>
