<?xml version="1.0" encoding="utf-8"?>
<!-- Generator: Adobe Illustrator 17.0.0, SVG Export Plug-In . SVG Version: 6.00 Build 0)  -->
<!DOCTYPE svg PUBLIC "-//W3C//DTD SVG 1.1//EN" "http://www.w3.org/Graphics/SVG/1.1/DTD/svg11.dtd">
<svg version="1.1" id="Capa_1" xmlns="http://www.w3.org/2000/svg" xmlns:xlink="http://www.w3.org/1999/xlink" x="0px" y="0px"
	 width="334.371px" height="380.563px" viewBox="0 0 334.371 380.563" enable-background="new 0 0 334.371 380.563"
	 xml:space="preserve">
<g>
	<path fill="#F2F2F2" d="M235.297,355.08H77.633c-36.64,0-66.619-29.978-66.619-66.619V68.619C11.014,31.979,40.992,2,77.633,2
		h157.665c36.641,0,66.619,29.979,66.619,66.619v219.842C301.916,325.102,271.938,355.08,235.297,355.08z"/>
	<path fill="#C70E1B" d="M130.373,178.54H11.014V81.943h119.359c26.675,0,48.299,21.624,48.299,48.299l0,0
		C178.671,156.916,157.047,178.54,130.373,178.54z"/>
	<g>
		<path fill="#FFFFFF" d="M54.2,139.06H42.118v12.571h-8.054v-42.715c6.712,0,13.425-0.062,20.137-0.062
			C75.071,108.853,75.132,139.06,54.2,139.06z M42.118,131.676H54.2c10.314,0,10.252-15.134,0-15.134H42.118V131.676z"/>
		<path fill="#FFFFFF" d="M112.902,129.906c0.182,10.801-6.407,21.725-21.358,21.725c-5.248,0-11.533,0-16.781,0v-42.715
			c5.249,0,11.534,0,16.781,0C106.189,108.915,112.718,119.349,112.902,129.906z M82.757,143.88h8.787
			c9.703,0,13.547-7.079,13.364-14.035c-0.183-6.652-4.088-13.303-13.364-13.303h-8.787V143.88z"/>
		<path fill="#FFFFFF" d="M119.487,151.63v-42.655h30.694v7.75h-22.639v11.654h21.419v7.446h-21.419v15.804L119.487,151.63
			L119.487,151.63z"/>
	</g>
	<path fill="#D9D9D9" d="M244.178,227.001H68.752c-3.496,0-6.356,2.86-6.356,6.356l0,0c0,3.496,2.86,6.356,6.356,6.356h175.425
		c3.496,0,6.356-2.86,6.356-6.356l0,0C250.534,229.861,247.674,227.001,244.178,227.001z"/>
	<path fill="#D9D9D9" d="M244.178,249.883H68.752c-3.496,0-6.356,2.86-6.356,6.356l0,0c0,3.496,2.86,6.356,6.356,6.356h175.425
		c3.496,0,6.356-2.86,6.356-6.356l0,0C250.534,252.743,247.674,249.883,244.178,249.883z"/>
	<path fill="#D9D9D9" d="M244.178,272.764H68.752c-3.496,0-6.356,2.86-6.356,6.356l0,0c0,3.496,2.86,6.356,6.356,6.356h175.425
		c3.496,0,6.356-2.86,6.356-6.356l0,0C250.534,275.625,247.674,272.764,244.178,272.764z"/>
	<path fill="#D9D9D9" d="M244.178,295.646H68.752c-3.496,0-6.356,2.86-6.356,6.356l0,0c0,3.496,2.86,6.356,6.356,6.356h175.425
		c3.496,0,6.356-2.86,6.356-6.356l0,0C250.534,298.506,247.674,295.646,244.178,295.646z"/>
	<path opacity="0.1" enable-background="new    " d="M249.656,216.832c-46.262,0-83.899,37.637-83.899,83.899
		c0,20.72,7.566,39.696,20.06,54.349h49.48c36.641,0,66.619-29.979,66.619-66.619v-53.294
		C287.568,223.707,269.405,216.832,249.656,216.832z"/>
	<circle fill="#F2F2F2" cx="249.656" cy="300.731" r="78.814"/>
	<path d="M261.733,328.697h-22.882v-52.119c0-6.319,5.122-11.441,11.441-11.441l0,0c6.318,0,11.441,5.122,11.441,11.441V328.697z"/>
	<path d="M248.279,343.475l-20.281-27.215c-0.867-1.163-0.037-2.817,1.414-2.817h41.647c1.471,0,2.296,1.696,1.387,2.853
		L251.08,343.51C250.363,344.424,248.973,344.406,248.279,343.475z"/>
</g>
</svg>
