<?xml version="1.0" encoding="utf-8"?>
<!-- Generator: Adobe Illustrator 24.1.0, SVG Export Plug-In . SVG Version: 6.00 Build 0)  -->
<svg version="1.1" id="Capa_1" xmlns="http://www.w3.org/2000/svg" xmlns:xlink="http://www.w3.org/1999/xlink" x="0px" y="0px"
	 viewBox="0 0 209 57" style="enable-background:new 0 0 209 57;" xml:space="preserve">
<style type="text/css">
	.st0{fill:#FFFFFF;}
	.st1{fill:#808080;}
	.st2{fill:#E71B19;}
	.st3{fill:#730E0D;}
</style>
<g>
	<path class="st0" d="M153.41,6.5c1.15-2.32,3.85-3.95,6.46-3.33c0.82,0.52,1.74,1,2.22,1.89c0.75,1.29,0.7,2.89,0.31,4.3
		c-0.96,3.54-1.91,7.07-2.86,10.61l-0.03,0.11c-2.99-0.8-6.03-1.39-9.04-2.1c0.62-2.81,1.22-5.63,2.03-8.4
		C152.83,8.56,152.88,7.45,153.41,6.5z"/>
	<path class="st0" d="M136.62,32.84c0.39-1.21,1.6-1.94,2.79-2.17c0.63-0.1,1.43-0.06,1.83,0.52c0.38,0.62,0.03,1.35,0.11,2.02
		c0.29,3.62,0.81,7.22,1.64,10.75c0.33,1.27,0.63,2.6,1.34,3.73c0.21,0.38,0.77,0.8,1.12,0.34c0.83-1.26,1.02-2.8,1.26-4.26
		c0.69-3.63,0.72-7.34,0.67-11.02c0-0.77,0.7-1.62,1.53-1.45c0.81,0.12,1.43,0.73,1.99,1.29c0.57,4.32,0.75,8.81-0.64,12.99
		c-0.66,1.96-1.58,3.86-2.9,5.47c-0.98,1.18-2.55,2.12-4.13,1.7c-1.43-0.44-2.57-1.59-3.23-2.9c-1.01-1.97-1.41-4.17-1.75-6.34
		c-0.44,2.87-0.79,5.75-1.08,8.64c-0.02,0.71-0.54,1.38-1.24,1.54c-0.76,0.18-1.56,0.02-2.3-0.17c-0.6-0.16-1.05-0.75-0.97-1.38
		C132.93,45.56,134.14,38.97,136.62,32.84z"/>
	<path class="st0" d="M167.47,31.36c0.71-0.23,1.49-0.38,2.24-0.21c0.76,0.23,1.56,0.97,1.25,1.84c-0.33,0.85-1,1.54-1.69,2.12
		c-2.76,0.79-5.48,1.8-7.93,3.33c2.23-0.25,4.61-0.46,6.72,0.48c1.54,0.66,2.65,2.3,2.51,4c-0.27,2.74-1.84,5.21-3.87,7.01
		c-2.07,1.88-4.64,3.4-7.49,3.57c-2.15,0.18-4.35-0.53-5.93-2.01c-0.46-0.48-1.27-0.63-1.47-1.33c-0.24-1.03,0.57-2.04,1.49-2.39
		c0.94-0.33,1.74,0.41,2.6,0.65c1.91,0.67,4,0.36,5.86-0.34c1.56-0.53,3.23-1.26,4.1-2.75c0.34-0.49,0.2-1.18-0.23-1.56
		c-0.67-0.62-1.58-0.88-2.45-1.07c-3.06-0.62-6.17-0.06-9.23,0.14c-0.81-0.25-1.71-0.78-1.86-1.69c-0.11-0.86,0.55-1.51,1.11-2.05
		c1.94-1.83,4.29-3.14,6.64-4.36C162.33,33.46,164.88,32.36,167.47,31.36z"/>
	<path class="st0" d="M105.21,33.89c0.35-1.02,1.17-1.97,2.3-2.11c3.58-0.25,7.08,0.76,10.56,1.47c1.23,0.28,1.71,2,0.67,2.8
		c-0.96,1.04-2.42,0.45-3.64,0.44c-1.65-0.08-3.29-0.42-4.95-0.31c-0.68,0.05-1.46,0.37-1.6,1.11c-0.52,1.96-0.94,3.97-0.9,6.01
		c2.19,0.06,4.32-0.55,6.45-0.99c1.52-0.22,2.01,1.88,1.24,2.9c-0.42,0.91-1.5,0.94-2.32,1.25c-2.06,0.69-4.25,0.77-6.34,1.32
		c-0.18,0.41-0.53,0.81-0.4,1.29c0.27,1.83-1.19,4.03-3.15,4.01c-1.12-0.04-1.49-1.32-1.42-2.24
		C101.97,45.04,103.25,39.33,105.21,33.89z"/>
	<g>
		<path class="st0" d="M124.73,34.31c0.79-1,1.7-2.13,3.04-2.35c1.26-0.09,1.96,1.2,2.31,2.23c1.04,3.24,0.8,6.7,1.01,10.05
			c0.5,0.2,1.06,0.5,1.16,1.09c0.25,0.87-0.29,1.69-0.91,2.25c0.4,1.39,0.82,2.95,0.13,4.33c-0.41,0.96-1.63,1.43-2.58,1.03
			c-0.55-0.26-0.73-0.91-0.77-1.47c-0.07-0.98-0.4-1.92-0.47-2.9c-2.64,0.27-5.29,0.51-7.88,1.09c-1.13,1.25-1.89,3.08-3.68,3.51
			c-1.18,0.33-2.14-1.15-1.55-2.15c1.07-2.04,2.26-4.02,3.43-6.02C120.1,41.36,122.19,37.68,124.73,34.31z M121.84,45.71
			c1.84-0.29,3.67-0.62,5.51-0.88c-0.16-2.39-0.2-4.78-0.55-7.15C124.8,40.12,123.26,42.9,121.84,45.71z"/>
	</g>
	<path class="st0" d="M176.46,32.84c0.44-0.65,1.26-1.09,2.05-0.81c1.21,0.29,1.93,1.77,1.29,2.88c-1.72,2.73-3.44,5.6-3.95,8.83
		c-0.16,1.25-0.23,2.68,0.59,3.73c0.8,0.95,2.21,0.88,3.28,0.5c1.36-0.51,2.63-1.36,3.61-2.43c0.67-4.21,1.58-8.4,3.17-12.36
		c0.49-1.16,2.03-1.42,3.13-1.09c0.75,0.17,1.15,1.07,0.88,1.76c-1.92,5.64-2.98,11.53-3.65,17.44c-0.08,0.77-0.6,1.56-1.42,1.65
		c-0.78,0.08-1.71,0.09-2.32-0.5c-0.43-0.4-0.43-1.02-0.46-1.56c-1.64,1.12-3.58,2.06-5.62,1.83c-1.76-0.12-3.41-1.12-4.33-2.62
		c-1.47-2.28-1.42-5.16-0.99-7.74C172.27,38.78,174.22,35.6,176.46,32.84z"/>
	<g>
		<path class="st0" d="M192.78,32.65c0.65-0.53,1.54-0.55,2.33-0.41c2.61,0.44,5.34,0.74,7.69,2.05c0.87,0.53,1.86,1.34,1.76,2.47
			c-0.17,1.27-1.3,2.1-2.29,2.78c1.19,0.43,2.51,1.13,2.87,2.44c0.36,1.55-0.53,3.05-1.56,4.13c-1.58,1.63-3.51,2.88-5.48,3.99
			c-2.48,1.42-5.24,2.33-8.07,2.74c-0.65,0.09-1.45-0.21-1.59-0.92c-0.14-0.88,0.01-1.78,0.08-2.66c0.54-4.69,1.54-9.32,2.86-13.85
			C191.73,34.44,191.94,33.32,192.78,32.65z M195.1,36.48c-0.37,0.87-0.62,1.79-0.67,2.74c1.63-0.24,3.34-0.4,4.8-1.21
			c0.47-0.22,0.92-0.97,0.31-1.31C198.13,36.16,196.57,36.41,195.1,36.48z M193.46,43.06c-0.66,1.83-0.83,3.8-0.77,5.73
			c2.31-0.6,4.62-1.43,6.58-2.82c0.7-0.51,1.43-1.24,1.35-2.19c-0.15-0.55-0.77-0.77-1.25-0.94
			C197.42,42.42,195.4,42.68,193.46,43.06z"/>
	</g>
</g>
<g>
	<g>
		<path d="M156.68,1.43c2-0.63,4.21-0.39,6.11,0.46c2.09,0.93,3.74,2.7,4.73,4.76c2.08,0,4.17-0.01,6.25,0
			c0.94-0.01,1.85,0.52,2.35,1.31c2.01,3.07,4,6.14,6.01,9.21c0-2.58,0-5.15,0-7.73c-0.06-1.44,1.19-2.77,2.64-2.79
			c1.39-0.02,2.77,0,4.17-0.01c0.74,0.02,1.52-0.1,2.22,0.19c1.06,0.39,1.79,1.49,1.75,2.62c0,6.7,0,13.39,0,20.09
			c1.53-0.36,3.07,0.04,4.58,0.28c2.35,0.37,4.72,0.92,6.79,2.12c1.18,0.72,2.26,1.72,2.75,3.04c0.52,1.32,0.32,2.85-0.4,4.05
			c0.92,1.14,1.49,2.59,1.33,4.07c-0.19,2.56-1.92,4.67-3.83,6.24c-3.76,3.03-8.21,5.31-13.01,6.1c-1.19,0.29-2.47,0.15-3.56-0.42
			c-1.86,1.06-4.37,0.94-6.09-0.34c-2.15,0.92-4.64,1.09-6.85,0.29c-2.1-0.71-3.78-2.36-4.77-4.32c-2.15,2.31-4.81,4.27-7.89,5.14
			c-2.7,0.76-5.7,0.64-8.22-0.66c-0.85-0.42-1.6-1-2.33-1.6c-0.54-0.38-1.1-0.74-1.55-1.23c-1.25,1.64-3.03,3-5.12,3.25
			c-1.68,0.25-3.4-0.35-4.69-1.4c-0.23-0.15-0.43-0.46-0.73-0.32l0.18,0.19c-0.67,1.13-1.7,2.11-3.03,2.36
			c-1.7,0.33-3.56,0.05-5.03-0.89c-1.41,0.49-3.09,0.49-4.34-0.42c-1.13-0.79-1.67-2.17-1.78-3.5c-1.36,0.17-2.74,0.31-4.08,0.59
			c-0.69,1.07-1.48,2.1-2.57,2.79c-1.41,1.02-3.41,1.35-4.96,0.45c-1.32-0.81-2.23-2.36-2.11-3.93c0.03-0.69,0.28-1.33,0.53-1.96
			c-1,0.25-2.02,0.41-3.03,0.54c-0.31,1.6-1,3.18-2.23,4.28c-1.13,1.01-2.67,1.68-4.21,1.44c-1.46-0.16-2.75-1.18-3.29-2.54
			c-0.66-1.54-0.4-3.25-0.27-4.87c0.53-5.55,1.82-11.04,3.85-16.23c-3.45-4.3-3.91-10.35-2.48-15.52c-1.6,0.06-3.21,0.02-4.81,0.03
			c0,5.89,0,11.77,0,17.66c0.06,1.45-1.19,2.78-2.64,2.8c-1.98,0.01-3.96,0.01-5.94,0c-1.44-0.02-2.69-1.35-2.63-2.79
			c0-5.89,0-11.78,0-17.67c-1.57-0.01-3.14,0.01-4.72-0.01c0.97,3.74,0.9,7.8-0.42,11.45c-1.5,4.06-4.87,7.47-9.05,8.74
			c-3.13,0.96-6.56,0.99-9.69,0.04c-3.16-0.94-5.88-3.1-7.69-5.83c-1.3-1.96-2.03-4.27-2.31-6.6c-2.51,2.8-6.33,4.03-10.02,3.99
			c-0.01,2.02,0.02,4.05-0.01,6.07c-0.03,1.41-1.32,2.64-2.73,2.61c-1.92,0-3.83,0.01-5.75-0.01c-0.65,0-1.23-0.33-1.74-0.69
			c-0.52,0.37-1.12,0.69-1.77,0.69c-2.06,0.02-4.12,0-6.18,0.01c-1.19,0.04-2.34-0.76-2.69-1.9c-0.41-1.23-0.78-2.48-1.18-3.71
			c-1.62,0-3.24,0-4.86,0c-0.39,1.22-0.75,2.44-1.15,3.66c-0.33,1.13-1.45,1.97-2.63,1.95c-2.11-0.01-4.22,0.03-6.33-0.02
			C1.83,37,0.6,35.13,1.17,33.54c2.99-8.34,6.02-16.67,9.02-25.01c0.37-1.13,1.51-1.93,2.69-1.89c2.21,0,4.42,0,6.63,0
			c1.18-0.02,2.29,0.82,2.64,1.94c2.4,6.78,4.86,13.53,7.22,20.31c0.1-6.56,0-13.12,0.05-19.68c0.05-1.36,1.26-2.55,2.63-2.57
			c3.16-0.02,6.31-0.01,9.47,0c2.98,0.05,6.12,0.72,8.43,2.73c1.22,1.05,2.12,2.45,2.64,3.97c1.97-3.36,5.33-5.89,9.15-6.71
			c3.41-0.73,7.09-0.6,10.3,0.84c2.14,0.95,3.93,2.54,5.35,4.39c0.07-1.16-0.18-2.38,0.2-3.5c0.42-1.04,1.51-1.75,2.63-1.71
			c6.54,0,13.07,0,19.61,0c1.2-0.06,2.37,0.76,2.73,1.91c0.27,1.16,0.07,2.37,0.13,3.54c2.06-2.8,5.14-4.84,8.57-5.53
			c3.55-0.7,7.41-0.5,10.67,1.18c3.82,1.99,6.55,5.84,7.35,10.05c0.71,3.79,0.46,7.84-1.15,11.38c0.2,0.03,0.6,0.09,0.79,0.12
			c1.59-2.51,3.17-5.02,4.76-7.53c-2.15-3.7-4.33-7.38-6.47-11.09c-0.95-1.62,0.28-3.9,2.14-4.02c2.33-0.05,4.66-0.01,6.99-0.02
			c1.06-0.05,2.11,0.57,2.58,1.52c0.68,1.36,1.33,2.74,2,4.11c0.75-1.38,1.49-2.78,2.24-4.16c0.47-0.87,1.41-1.47,2.41-1.46
			c1.88-0.02,3.76,0.01,5.64-0.01C152.06,4.14,154.24,2.29,156.68,1.43z M153.41,6.5c-0.53,0.95-0.58,2.06-0.91,3.08
			c-0.81,2.77-1.42,5.59-2.03,8.4c-0.84,3.48-1.99,6.93-2.11,10.54c1.94-0.07,3.73,1.08,4.84,2.6c0.5,0.75,0.46,1.69,0.58,2.55
			c0.04,0.44,0.09,0.88,0.14,1.32c2.31-1.54,4.77-2.83,7.29-3.98c0.57-0.17,0.68-0.8,0.81-1.29c0.67-2.89,1.29-5.78,1.9-8.68
			c0.69-3.19,1.33-6.4,2.09-9.57c0.18-0.8,0.24-1.62,0.13-2.43c-0.36-3.09-3.18-5.68-6.27-5.85C157.27,2.56,154.56,4.18,153.41,6.5z
			 M63.97,9.05c-3.05,0.27-5.99,1.76-7.92,4.15c-2.44,2.9-3.12,6.88-2.8,10.57c0.22,2.96,1.48,5.86,3.69,7.88
			c2.51,2.48,6.19,3.45,9.64,3.12c2.98-0.21,5.9-1.54,7.85-3.83c2.92-3.2,3.6-7.86,2.96-12.02c-0.46-3.21-2.26-6.21-4.94-8.06
			C70,9.15,66.88,8.74,63.97,9.05z M107.37,11.27c-2.42,1.78-4.04,4.52-4.58,7.46c-0.7,3.8-0.35,8.02,1.95,11.24
			c2.08-1.43,4.7-0.98,7.05-0.77c-2.01-1.07-3.02-3.31-3.26-5.49c-0.28-2.54-0.12-5.32,1.37-7.49c1.77-2.55,5.62-3.2,8.19-1.52
			c1.95,1.38,2.68,3.88,2.83,6.16c0.14,2.48-0.11,5.25-1.84,7.17c-0.93,1.11-2.34,1.67-3.75,1.81c1.06,0.22,2.12,0.43,3.18,0.66
			c1.32,0.24,2.39,1.19,3.1,2.29c2.5-1.72,4.29-4.41,4.91-7.38c0.61-2.95,0.54-6.1-0.46-8.96c-1.29-3.57-4.41-6.54-8.19-7.23
			C114.29,8.57,110.33,9.05,107.37,11.27z M3.79,34.37c2.02,0,4.03,0,6.04,0c0.59-1.87,1.18-3.74,1.76-5.61
			c2.96-0.02,5.91,0.03,8.87-0.02c0.67,1.86,1.18,3.77,1.82,5.64c2.05-0.02,4.1,0,6.14-0.01c-2.97-8.32-5.94-16.65-8.91-24.97
			c-2.23-0.01-4.46,0.02-6.68-0.02C9.78,17.7,6.81,26.04,3.79,34.37z M32.17,9.4c0,8.32,0,16.65,0,24.97c1.87,0,3.74,0,5.61,0
			c0-2.9,0-5.79,0-8.69c2.05-0.02,4.14,0.13,6.15-0.4c2.09-0.5,4-1.76,5.25-3.53c1.27-1.85,1.46-4.22,1.09-6.38
			c-0.28-1.66-1.14-3.25-2.53-4.24c-1.85-1.34-4.21-1.69-6.44-1.73C38.26,9.4,35.22,9.4,32.17,9.4z M80.14,9.4c0,1.5,0,3.01,0,4.51
			c2.35,0.01,4.69,0,7.04,0c0,6.82,0,13.64,0,20.46c1.9,0.01,3.8-0.01,5.7,0.01c0.04-6.83,0-13.65,0.02-20.47
			c2.34,0.01,4.68-0.01,7.02,0.01c0.02-1.51,0.03-3.02,0-4.54C93.33,9.42,86.74,9.39,80.14,9.4z M129.66,9.4
			c2.41,4.14,4.83,8.28,7.25,12.42c-1.82,2.9-3.66,5.79-5.48,8.69c-0.24,0.22,0.04,0.44,0.14,0.63c0.72,0.92,1.08,2.04,1.43,3.13
			c0.03,0,0.09,0.01,0.12,0.01c0.48-1.17,0.81-2.41,1.44-3.51c0.99-1.6,2.76-2.53,4.56-2.88c0.6-1.08,1.13-2.19,1.53-3.35
			c0.22,1.28,0.93,2.38,1.51,3.52c0.34,0.72,1.13,1.08,1.48,1.8c0.53,0.85,0.4,1.93,0.91,2.79c0.11-1.32,0.79-2.51,1.77-3.37
			c-0.1-1.34-0.2-2.71,0.12-4.04c-0.52-1.25-1.4-2.34-2.05-3.53c1.65-2.75,3.36-5.47,4.98-8.24c0.48-1.33,0.7-2.73,1.11-4.08
			c-1.63,0-3.26,0-4.88,0c-1.22,2.26-2.43,4.53-3.65,6.79c-0.46,0.87-0.76,1.81-1.09,2.73c-0.45-1.6-1.27-3.05-1.97-4.54
			c-0.83-1.67-1.58-3.37-2.47-5.01C134.17,9.43,131.91,9.38,129.66,9.4z M168.3,9.4c0.02,0.68,0.05,1.37-0.06,2.05
			c-0.13,0.88-0.56,1.71-0.53,2.62c0.01,4.79,0,9.57,0,14.36c0.97-0.13,1.99-0.2,2.93,0.12c0.93,0.29,1.69,0.94,2.36,1.63
			c-0.07-4.58,0.09-9.17-0.09-13.75c0.99,1.84,2.19,3.54,3.32,5.29c2.46,3.75,4.93,7.49,7.38,11.24c0.31-0.86,0.68-1.74,1.37-2.37
			c1.36-1.29,3.38-1.63,5.17-1.25c-0.01-6.66,0.02-13.31-0.02-19.96c-1.76,0.02-3.51,0-5.27,0.01c0.05,5.71-0.11,11.43,0.1,17.14
			c-3.77-5.69-7.48-11.43-11.22-17.14C171.95,9.4,170.13,9.4,168.3,9.4z M114,16.63c-1.15,0.21-2.06,1.16-2.39,2.26
			c-0.56,1.7-0.55,3.55-0.2,5.29c0.24,1.17,0.9,2.41,2.13,2.77c1.17,0.31,2.65,0.26,3.49-0.73c0.96-1.08,1.12-2.61,1.17-3.99
			c0.02-1.62-0.16-3.36-1.14-4.72C116.38,16.55,115.07,16.43,114,16.63z M163.9,29.83c0.35-0.15,0.7-0.29,1.06-0.43
			c0.01-1.33,0.05-2.66-0.05-3.99C164.64,26.9,164.25,28.36,163.9,29.83z M175.75,26c-0.01,1.27,0,2.53-0.01,3.8
			c0.65-0.35,1.37-0.56,2.11-0.62C177.13,28.13,176.45,27.06,175.75,26z M136.62,32.84c-2.48,6.13-3.69,12.72-3.99,19.3
			c-0.08,0.63,0.37,1.22,0.97,1.38c0.74,0.19,1.54,0.35,2.3,0.17c0.7-0.15,1.22-0.83,1.24-1.54c0.3-2.89,0.64-5.77,1.08-8.64
			c0.35,2.17,0.74,4.37,1.75,6.34c0.67,1.31,1.8,2.46,3.23,2.9c1.58,0.42,3.15-0.52,4.13-1.7c1.32-1.6,2.24-3.51,2.9-5.47
			c1.4-4.19,1.21-8.68,0.64-12.99c-0.56-0.56-1.17-1.16-1.99-1.29c-0.83-0.17-1.53,0.68-1.53,1.45c0.05,3.68,0.02,7.39-0.67,11.02
			c-0.24,1.45-0.44,3-1.26,4.26c-0.36,0.46-0.92,0.04-1.12-0.34c-0.7-1.13-1-2.46-1.34-3.73c-0.83-3.53-1.35-7.14-1.64-10.75
			c-0.08-0.67,0.27-1.4-0.11-2.02c-0.39-0.58-1.2-0.62-1.83-0.52C138.21,30.9,137,31.63,136.62,32.84z M167.47,31.36
			c-2.59,1-5.15,2.1-7.62,3.36c-2.35,1.22-4.7,2.54-6.64,4.36c-0.56,0.54-1.22,1.19-1.11,2.05c0.15,0.9,1.06,1.44,1.86,1.69
			c3.07-0.2,6.17-0.75,9.23-0.14c0.87,0.2,1.78,0.46,2.45,1.07c0.43,0.39,0.57,1.07,0.23,1.56c-0.86,1.49-2.53,2.22-4.1,2.75
			c-1.86,0.69-3.95,1.01-5.86,0.34c-0.86-0.24-1.65-0.98-2.6-0.65c-0.92,0.35-1.74,1.36-1.49,2.39c0.19,0.7,1.01,0.85,1.47,1.33
			c1.58,1.48,3.79,2.2,5.93,2.01c2.85-0.17,5.42-1.69,7.49-3.57c2.03-1.8,3.6-4.27,3.87-7.01c0.14-1.7-0.97-3.34-2.51-4
			c-2.11-0.94-4.49-0.73-6.72-0.48c2.44-1.53,5.16-2.54,7.93-3.33c0.69-0.58,1.36-1.27,1.69-2.12c0.31-0.86-0.49-1.61-1.25-1.84
			C168.96,30.98,168.18,31.13,167.47,31.36z M105.21,33.89c-1.96,5.44-3.24,11.15-3.51,16.94c-0.06,0.92,0.3,2.21,1.42,2.24
			c1.96,0.02,3.42-2.18,3.15-4.01c-0.13-0.48,0.22-0.88,0.4-1.29c2.09-0.55,4.28-0.63,6.34-1.32c0.82-0.31,1.89-0.35,2.32-1.25
			c0.77-1.01,0.28-3.12-1.24-2.9c-2.13,0.44-4.25,1.04-6.45,0.99c-0.04-2.04,0.38-4.05,0.9-6.01c0.14-0.74,0.93-1.06,1.6-1.11
			c1.65-0.11,3.3,0.24,4.95,0.31c1.21,0.01,2.68,0.6,3.64-0.44c1.04-0.79,0.56-2.52-0.67-2.8c-3.48-0.7-6.97-1.71-10.56-1.47
			C106.38,31.92,105.56,32.87,105.21,33.89z M124.73,34.31c-2.54,3.37-4.63,7.05-6.77,10.67c-1.16,2-2.35,3.98-3.43,6.02
			c-0.59,1,0.38,2.48,1.55,2.15c1.8-0.42,2.55-2.25,3.68-3.51c2.59-0.58,5.24-0.81,7.88-1.09c0.07,0.98,0.41,1.92,0.47,2.9
			c0.04,0.56,0.22,1.21,0.77,1.47c0.95,0.4,2.17-0.07,2.58-1.03c0.69-1.38,0.27-2.94-0.13-4.33c0.62-0.56,1.16-1.38,0.91-2.25
			c-0.09-0.6-0.65-0.89-1.16-1.09c-0.21-3.35,0.03-6.81-1.01-10.05c-0.34-1.03-1.05-2.32-2.31-2.23
			C126.43,32.18,125.52,33.31,124.73,34.31z M176.46,32.84c-2.24,2.76-4.19,5.94-4.74,9.51c-0.43,2.58-0.47,5.46,0.99,7.74
			c0.92,1.5,2.57,2.5,4.33,2.62c2.04,0.23,3.98-0.7,5.62-1.83c0.03,0.54,0.04,1.16,0.46,1.56c0.61,0.59,1.54,0.57,2.32,0.5
			c0.82-0.09,1.34-0.88,1.42-1.65c0.67-5.91,1.74-11.8,3.65-17.44c0.26-0.69-0.13-1.6-0.88-1.76c-1.1-0.33-2.64-0.07-3.13,1.09
			c-1.6,3.96-2.5,8.16-3.17,12.36c-0.98,1.07-2.25,1.92-3.61,2.43c-1.07,0.38-2.48,0.44-3.28-0.5c-0.82-1.05-0.75-2.48-0.59-3.73
			c0.51-3.24,2.24-6.1,3.95-8.83c0.64-1.11-0.09-2.58-1.29-2.88C177.72,31.75,176.91,32.19,176.46,32.84z M192.78,32.65
			c-0.84,0.68-1.05,1.8-1.39,2.77c-1.31,4.53-2.32,9.16-2.86,13.85c-0.07,0.88-0.22,1.78-0.08,2.66c0.15,0.7,0.94,1.01,1.59,0.92
			c2.83-0.41,5.59-1.32,8.07-2.74c1.97-1.11,3.9-2.36,5.48-3.99c1.03-1.09,1.92-2.59,1.56-4.13c-0.36-1.31-1.68-2.01-2.87-2.44
			c0.99-0.68,2.11-1.51,2.29-2.78c0.1-1.14-0.89-1.95-1.76-2.47c-2.36-1.31-5.08-1.61-7.69-2.05
			C194.33,32.09,193.43,32.11,192.78,32.65z M181.07,38.1c-1.3,2.26-2.63,4.71-2.56,7.39c0.83-0.27,1.58-0.74,2.26-1.29
			c0.38-2.77,1.12-5.47,1.75-8.18C181.87,36.57,181.55,37.41,181.07,38.1z M144.5,36.99 M110.67,40.22
			c1.22-0.29,2.48-0.46,3.66-0.89c-0.04-0.04-0.13-0.13-0.18-0.17c-1.05-0.13-2.11-0.14-3.16-0.3
			C110.89,39.32,110.78,39.77,110.67,40.22z M114.83,39.68c0.92-0.14,1.75,0.52,2.41,1.1c0.26-0.45,0.53-0.9,0.81-1.34
			c-1.16-0.01-2.32-0.15-3.47-0.23C114.64,39.33,114.76,39.56,114.83,39.68z M155.91,45.44c1.76,1,3.86,0.54,5.61-0.22
			C159.65,45.07,157.78,45.24,155.91,45.44z"/>
	</g>
	<g>
		<path d="M37.79,13.69c1.73,0.05,3.62-0.25,5.18,0.69c1.24,0.73,1.65,2.29,1.51,3.64c-0.06,1.13-0.61,2.29-1.64,2.85
			c-1.54,0.86-3.36,0.58-5.05,0.63C37.78,18.9,37.78,16.29,37.79,13.69z M40.54,16.44c-0.01,0.77-0.01,1.54,0,2.32
			c0.35-0.12,0.8-0.1,1.06-0.39c0.19-0.49,0.19-1.05,0.03-1.54C41.33,16.56,40.9,16.54,40.54,16.44z"/>
	</g>
	<path d="M12.81,24.47c1.06-3.55,2.11-7.1,3.19-10.64c1.07,3.54,2.13,7.09,3.19,10.64C17.06,24.47,14.94,24.47,12.81,24.47z"/>
	<g>
		<path d="M63.84,14.01c1.8-0.43,3.89-0.24,5.34,1c1.45,1.25,2.24,3.13,2.48,5c0.25,2.06,0.16,4.23-0.66,6.16
			c-0.68,1.57-1.95,2.98-3.65,3.44c-1.78,0.48-3.85,0.34-5.38-0.77c-1.56-1.18-2.46-3.07-2.71-4.98c-0.26-2.06-0.2-4.24,0.61-6.18
			C60.61,15.98,62,14.46,63.84,14.01z M64.7,16.63c-1.18,0.23-1.98,1.29-2.39,2.35c-0.55,1.64-0.53,3.43-0.2,5.12
			c0.29,1.28,1.1,2.69,2.5,2.93c1.08,0.18,2.39,0.08,3.13-0.82c1.02-1.14,1.27-2.75,1.29-4.22c0-1.61-0.23-3.36-1.34-4.61
			C66.97,16.52,65.72,16.45,64.7,16.63z"/>
	</g>
	<path d="M195.1,36.48c1.47-0.07,3.03-0.32,4.44,0.22c0.61,0.34,0.16,1.09-0.31,1.31c-1.47,0.81-3.18,0.96-4.8,1.21
		C194.48,38.27,194.72,37.35,195.1,36.48z"/>
	<path d="M121.84,45.71c1.42-2.81,2.96-5.59,4.96-8.04c0.36,2.37,0.39,4.77,0.55,7.15C125.51,45.09,123.67,45.41,121.84,45.71z"/>
	<path d="M193.46,43.06c1.94-0.37,3.96-0.64,5.91-0.21c0.49,0.16,1.1,0.39,1.25,0.94c0.08,0.95-0.65,1.67-1.35,2.19
		c-1.97,1.39-4.27,2.22-6.58,2.82C192.63,46.86,192.8,44.89,193.46,43.06z"/>
</g>
<g>
	<path class="st1" d="M159.87,3.17c3.08,0.17,5.9,2.76,6.27,5.85c0.11,0.81,0.05,1.64-0.13,2.43c-0.76,3.18-1.39,6.38-2.09,9.57
		c-1.46-0.36-2.95-0.6-4.38-1.06c0.95-3.54,1.9-7.08,2.86-10.61c0.38-1.4,0.44-3-0.31-4.3C161.61,4.17,160.69,3.7,159.87,3.17z"/>
	<g>
		<path class="st1" d="M63.97,9.05c2.91-0.3,6.03,0.1,8.48,1.8c2.68,1.85,4.48,4.85,4.94,8.06c0.64,4.16-0.03,8.81-2.96,12.02
			c-1.95,2.3-4.87,3.62-7.85,3.83c-3.45,0.33-7.14-0.64-9.64-3.12c-2.21-2.02-3.46-4.92-3.69-7.88c-0.32-3.68,0.35-7.67,2.8-10.57
			C57.99,10.81,60.92,9.32,63.97,9.05z M63.84,14.01c-1.84,0.46-3.23,1.98-3.97,3.67c-0.8,1.95-0.86,4.12-0.61,6.18
			c0.24,1.92,1.14,3.8,2.71,4.98c1.53,1.11,3.59,1.25,5.38,0.77c1.7-0.46,2.96-1.87,3.65-3.44c0.82-1.93,0.91-4.1,0.66-6.16
			c-0.24-1.87-1.03-3.75-2.48-5C67.73,13.77,65.64,13.57,63.84,14.01z"/>
	</g>
	<path class="st1" d="M107.37,11.27c2.96-2.23,6.93-2.71,10.49-2.04c3.78,0.69,6.91,3.66,8.19,7.23c1,2.86,1.07,6,0.46,8.96
		c-0.62,2.97-2.41,5.67-4.91,7.38c-0.71-1.1-1.78-2.04-3.1-2.29c-1.06-0.23-2.12-0.44-3.18-0.66c1.41-0.13,2.83-0.7,3.75-1.81
		c1.74-1.93,1.98-4.7,1.84-7.17c-0.15-2.28-0.88-4.78-2.83-6.16c-2.57-1.68-6.42-1.03-8.19,1.52c-1.49,2.17-1.65,4.96-1.37,7.49
		c0.24,2.18,1.25,4.42,3.26,5.49c-2.35-0.21-4.97-0.67-7.05,0.77c-2.3-3.22-2.65-7.44-1.95-11.24
		C103.33,15.8,104.95,13.05,107.37,11.27z"/>
	<g>
		<path class="st1" d="M3.79,34.37c3.01-8.33,5.99-16.67,9.04-24.99c2.23,0.04,4.46,0,6.68,0.02c2.97,8.32,5.94,16.65,8.91,24.97
			c-2.05,0.01-4.09-0.01-6.14,0.01c-0.64-1.87-1.15-3.78-1.82-5.64c-2.96,0.05-5.91,0-8.87,0.02c-0.59,1.87-1.17,3.74-1.76,5.61
			C7.82,34.37,5.81,34.38,3.79,34.37z M12.81,24.47c2.12,0,4.25,0,6.37,0c-1.06-3.55-2.11-7.1-3.19-10.64
			C14.92,17.37,13.88,20.92,12.81,24.47z"/>
	</g>
	<g>
		<path class="st1" d="M32.17,9.4c3.04,0,6.08,0,9.12,0c2.23,0.04,4.59,0.39,6.44,1.73c1.39,0.99,2.25,2.58,2.53,4.24
			c0.37,2.16,0.18,4.54-1.09,6.38c-1.24,1.76-3.15,3.02-5.25,3.53c-2.01,0.53-4.1,0.38-6.15,0.4c0,2.9,0,5.79,0,8.69
			c-1.87,0-3.74,0-5.61,0C32.17,26.05,32.17,17.72,32.17,9.4z M37.79,13.69c0,2.6,0,5.21,0,7.81c1.69-0.05,3.51,0.24,5.05-0.63
			c1.03-0.55,1.58-1.71,1.64-2.85c0.14-1.36-0.27-2.91-1.51-3.64C41.41,13.44,39.51,13.74,37.79,13.69z"/>
	</g>
	<path class="st1" d="M80.14,9.4c6.59-0.01,13.19,0.02,19.78-0.02c0.04,1.51,0.03,3.02,0,4.54c-2.34-0.02-4.68,0-7.02-0.01
		c-0.02,6.82,0.02,13.65-0.02,20.47c-1.9-0.02-3.8,0-5.7-0.01c0-6.82,0-13.64,0-20.46c-2.35-0.01-4.69,0-7.04,0
		C80.14,12.41,80.14,10.9,80.14,9.4z"/>
	<path class="st1" d="M129.66,9.4c2.25-0.02,4.51,0.03,6.76-0.03c0.89,1.63,1.64,3.34,2.47,5.01c0.7,1.49,1.52,2.94,1.97,4.54
		c0.33-0.92,0.63-1.86,1.09-2.73c1.23-2.26,2.43-4.53,3.65-6.79c1.63,0,3.25,0,4.88,0c-0.41,1.35-0.64,2.75-1.11,4.08
		c-1.62,2.77-3.33,5.49-4.98,8.24c0.65,1.19,1.53,2.29,2.05,3.53c-0.32,1.32-0.22,2.69-0.12,4.04c-0.98,0.86-1.66,2.06-1.77,3.37
		c-0.51-0.86-0.38-1.94-0.91-2.79c-0.35-0.72-1.14-1.08-1.48-1.8c-0.58-1.14-1.29-2.24-1.51-3.52c-0.4,1.16-0.94,2.27-1.53,3.35
		c-1.8,0.35-3.58,1.28-4.56,2.88c-0.63,1.1-0.96,2.34-1.44,3.51c-0.03,0-0.09-0.01-0.12-0.01c-0.35-1.1-0.7-2.22-1.43-3.13
		c-0.1-0.19-0.38-0.42-0.14-0.63c1.82-2.9,3.66-5.79,5.48-8.69C134.49,17.69,132.07,13.55,129.66,9.4z"/>
	<path class="st1" d="M168.3,9.4c1.82,0,3.64,0,5.47,0c3.74,5.71,7.44,11.45,11.22,17.14c-0.22-5.71-0.06-11.43-0.1-17.14
		c1.75-0.01,3.51,0.01,5.27-0.01c0.04,6.65,0,13.31,0.02,19.96c-1.79-0.38-3.81-0.04-5.17,1.25c-0.7,0.62-1.07,1.5-1.37,2.37
		c-2.46-3.75-4.92-7.49-7.38-11.24c-1.14-1.74-2.33-3.45-3.32-5.29c0.18,4.58,0.03,9.17,0.09,13.75c-0.67-0.69-1.43-1.34-2.36-1.63
		c-0.94-0.33-1.96-0.25-2.93-0.12c0-4.79,0.01-9.57,0-14.36c-0.03-0.91,0.4-1.74,0.53-2.62C168.35,10.77,168.32,10.08,168.3,9.4z"/>
</g>
<g>
	<path class="st2" d="M150.47,17.98c3.01,0.71,6.05,1.31,9.04,2.1c-0.84,3.12-1.69,6.24-2.52,9.36c-0.41,1.78-1.47,3.5-3.21,4.22
		c-0.12-0.86-0.08-1.8-0.58-2.55c-1.12-1.52-2.9-2.67-4.84-2.6C148.48,24.91,149.63,21.46,150.47,17.98z"/>
</g>
<g>
	<path class="st3" d="M159.51,20.09l0.03-0.11c1.43,0.46,2.92,0.7,4.38,1.06c-0.61,2.9-1.24,5.79-1.9,8.68
		c-0.14,0.5-0.24,1.13-0.81,1.29c-2.52,1.15-4.98,2.44-7.29,3.98c-0.05-0.44-0.1-0.88-0.14-1.32c1.74-0.72,2.8-2.44,3.21-4.22
		C157.82,26.32,158.67,23.21,159.51,20.09z"/>
	<path class="st3" d="M144.5,36.99"/>
</g>
</svg>
