<?xml version="1.0" standalone="no"?>
<!DOCTYPE svg PUBLIC "-//W3C//DTD SVG 20010904//EN"
 "http://www.w3.org/TR/2001/REC-SVG-20010904/DTD/svg10.dtd">
<svg version="1.0" xmlns="http://www.w3.org/2000/svg"
 width="96.000000pt" height="96.000000pt" viewBox="0 0 96.000000 96.000000"
 preserveAspectRatio="xMidYMid meet">
<metadata>
Created by potrace 1.14, written by Peter Selinger 2001-2017
</metadata>
<g transform="translate(0.000000,96.000000) scale(0.100000,-0.100000)"
fill="#000000" stroke="none">
<path d="M240 720 l0 -140 -40 0 -40 0 0 -40 c0 -22 -4 -40 -10 -40 -5 0 -10
5 -10 10 0 6 -9 10 -20 10 -17 0 -20 -7 -20 -40 0 -33 3 -40 20 -40 11 0 20 5
20 10 0 6 4 10 9 10 6 0 11 -70 13 -160 3 -137 6 -162 21 -177 16 -16 45 -18
291 -21 l274 -3 26 26 c26 26 26 28 26 180 0 97 4 155 10 155 6 0 10 -4 10
-10 0 -5 9 -10 20 -10 17 0 20 7 20 40 0 33 -3 40 -20 40 -11 0 -20 -4 -20
-10 0 -5 -4 -10 -10 -10 -5 0 -10 18 -10 40 l0 40 -40 0 -40 0 0 140 0 140
-240 0 -240 0 0 -140z"/>
</g>
</svg>
