<?xml version="1.0" encoding="utf-8"?>
<!-- Generator: Adobe Illustrator 25.0.0, SVG Export Plug-In . SVG Version: 6.00 Build 0)  -->
<svg version="1.1" id="Capa_1" xmlns="http://www.w3.org/2000/svg" xmlns:xlink="http://www.w3.org/1999/xlink" x="0px" y="0px"
	 viewBox="0 0 512 512" style="enable-background:new 0 0 512 512;" xml:space="preserve">
<style type="text/css">
	.st0{fill-rule:evenodd;clip-rule:evenodd;fill:#607D8B;}
	.st1{fill-rule:evenodd;clip-rule:evenodd;fill:#37474F;}
	.st2{fill-rule:evenodd;clip-rule:evenodd;fill:#E5E5E5;}
	.st3{fill-rule:evenodd;clip-rule:evenodd;fill:#848484;}
	.st4{fill-rule:evenodd;clip-rule:evenodd;fill:#EF314C;}
	.st5{fill-rule:evenodd;clip-rule:evenodd;}
</style>
<g id="Page-1">
	<g id="_x30_23---Dead-Computer" transform="translate(-1)">
		<path id="Path" class="st0" d="M504.5,366.9v32.6c0.4,9.8-7.2,18.1-17.1,18.6H26.6c-9.8-0.5-17.5-8.8-17.1-18.6v-32.6H504.5z"/>
		<path id="Path_1_" class="st1" d="M478.9,366.9v32.6c0.4,9.8-7.2,18.1-17.1,18.6h25.6c9.8-0.5,17.5-8.8,17.1-18.6v-32.6H478.9z"/>
		<path id="Path_2_" class="st2" d="M504.5,27.1v339.8H9.5V27.1C9.1,17.3,16.8,9,26.6,8.5h460.8C497.2,9,504.9,17.3,504.5,27.1z"/>
		<path id="Path_3_" class="st3" d="M487.4,8.5h-25.6c9.8,0.5,17.5,8.8,17.1,18.6v339.8h25.6V27.1C504.9,17.3,497.2,9,487.4,8.5z"/>
		<path id="Path_4_" class="st1" d="M350.9,469.3H163.1l25.6-51.2h136.5L350.9,469.3z"/>
		<path id="Path_5_" class="st0" d="M402.1,486.4c0,9.4-7.7,17-17.1,17.1H129c-9.4-0.1-17-7.7-17.1-17.1c0-9.4,7.7-17,17.1-17.1h256
			C394.4,469.4,402,477,402.1,486.4z"/>
		<path id="Path_6_" class="st1" d="M397,474.4c-3.2-3.2-7.5-5.1-12-5l-25.6,0c9.4,0.1,17,7.7,17.1,17.1c0,9.4-7.7,17-17.1,17.1H385
			c9.4,0,17-7.7,17.1-17.1C402.1,481.9,400.3,477.5,397,474.4z"/>
		<path id="Path_7_" class="st4" d="M342.3,222.8V256c0,18.9-15.3,34.1-34.1,34.1c-18.9,0-34.1-15.3-34.1-34.1v-50.6
			C297.7,206.7,320.9,212.6,342.3,222.8z"/>
		<g>
			<path id="Shape" d="M487.4,0H26.6C12,0.5,0.6,12.6,1,27.2v372.4c-0.4,14.6,11,26.7,25.6,27.2h148.3l-17.1,34.1H129
				c-14.1,0-25.6,11.5-25.6,25.6S114.9,512,129,512h256c14.1,0,25.6-11.5,25.6-25.6s-11.5-25.6-25.6-25.6h-28.9l-17.1-34.1h148.3
				c14.6-0.5,26-12.6,25.6-27.2V27.2C513.4,12.6,502,0.5,487.4,0z M26.6,17.1h68.3v46.4L64.5,81.7c-4.1,2.5-7,6.6-8,11.4
				c-0.9,4.7,0.2,9.7,3.1,13.5l17.1,22.7l-15.3,38.2c-1.2,2.8-0.8,6.1,1.1,8.6c1.9,2.4,5,3.7,8,3.2c3.1-0.5,5.6-2.5,6.7-5.4
				l15.3-38.2c2.2-5.5,1.4-11.8-2.2-16.6L73.2,96.3l30.4-18.3c5.1-3.1,8.3-8.6,8.3-14.6V17.1h375.5c5.1,0.5,8.9,5,8.5,10.1v331.2
				h-59.7V312l30.4-18.2c4.1-2.5,7-6.6,8-11.4c0.9-4.7-0.2-9.7-3.1-13.5l-17.1-22.7l15.3-38.2c1.6-4.3-0.5-9.2-4.8-10.9
				c-4.3-1.7-9.2,0.3-11,4.6l-15.3,38.2c-2.2,5.5-1.4,11.8,2.2,16.6l17.1,22.7l-30.4,18.3c-5.1,3.1-8.3,8.6-8.3,14.6v46.4H18.1V27.2
				C17.7,22,21.5,17.6,26.6,17.1L26.6,17.1z M393.5,486.4c0,4.7-3.8,8.5-8.5,8.5H129c-4.7,0-8.5-3.8-8.5-8.5s3.8-8.5,8.5-8.5h256
				C389.7,477.9,393.5,481.7,393.5,486.4z M337.1,460.8H176.9l17.1-34.1h126L337.1,460.8z M487.4,409.6H26.6
				c-5.1-0.5-8.9-5-8.5-10.1v-24h477.9v24C496.3,404.6,492.5,409.1,487.4,409.6z"/>
			<path id="Path_8_" class="st5" d="M140,168.2c3.3,3.3,8.7,3.3,12.1,0l19.6-19.6l19.6,19.6c3.3,3.2,8.7,3.2,12-0.1
				c3.3-3.3,3.3-8.6,0.1-12l-19.6-19.6l19.6-19.6c3.2-3.3,3.2-8.7-0.1-12c-3.3-3.3-8.6-3.3-12-0.1l-19.6,19.6l-19.6-19.6
				c-3.3-3.2-8.7-3.2-12,0.1c-3.3,3.3-3.3,8.6-0.1,12l19.6,19.6L140,156.1C136.7,159.4,136.7,164.8,140,168.2L140,168.2z"/>
			<path id="Path_9_" class="st5" d="M310.7,168.2c3.3,3.3,8.7,3.3,12.1,0l19.6-19.6l19.6,19.6c3.3,3.2,8.7,3.2,12-0.1
				c3.3-3.3,3.3-8.6,0.1-12l-19.6-19.6L374,117c3.2-3.3,3.2-8.7-0.1-12s-8.6-3.3-12-0.1l-19.6,19.6l-19.6-19.6
				c-3.3-3.2-8.7-3.2-12,0.1c-3.3,3.3-3.3,8.6-0.1,12l19.6,19.6l-19.6,19.6C307.4,159.4,307.4,164.8,310.7,168.2L310.7,168.2z"/>
			<path id="Shape_1_" d="M144.2,252.8c0.3-0.4,33.2-39.5,112.8-39.5c3,0,5.7,0.2,8.5,0.3V256c0,23.6,19.1,42.7,42.7,42.7
				c23.6,0,42.7-19.1,42.7-42.7v-18.5c7,4.2,13.4,9.4,19,15.4c3,3.7,8.3,4.3,12,1.3c3.7-3,4.3-8.3,1.3-12
				c-1.5-1.9-37.7-45.9-126.1-45.9s-124.6,44-126.1,45.9c-3,3.7-2.4,9,1.3,12C135.8,257.1,141.2,256.5,144.2,252.8L144.2,252.8z
				 M333.8,256c0,14.1-11.5,25.6-25.6,25.6c-14.1,0-25.6-11.5-25.6-25.6v-41.2c6,0.7,11.7,1.6,17.1,2.7v29.9c0,4.7,3.8,8.5,8.5,8.5
				s8.5-3.8,8.5-8.5v-25.5c5.8,1.8,11.5,4,17.1,6.5V256z"/>
		</g>
	</g>
</g>
</svg>
