<?xml version="1.0" encoding="utf-8"?>
<!-- Generator: Adobe Illustrator 17.0.0, SVG Export Plug-In . SVG Version: 6.00 Build 0)  -->
<!DOCTYPE svg PUBLIC "-//W3C//DTD SVG 1.1//EN" "http://www.w3.org/Graphics/SVG/1.1/DTD/svg11.dtd">
<svg version="1.1"
	 id="Layer_1" xmlns:dc="http://purl.org/dc/elements/1.1/" xmlns:cc="http://creativecommons.org/ns#" xmlns:rdf="http://www.w3.org/1999/02/22-rdf-syntax-ns#" xmlns:svg="http://www.w3.org/2000/svg" xmlns:sodipodi="http://sodipodi.sourceforge.net/DTD/sodipodi-0.dtd" xmlns:inkscape="http://www.inkscape.org/namespaces/inkscape" inkscape:version="0.48.4 r9939" sodipodi:docname="save.svg"
	 xmlns="http://www.w3.org/2000/svg" xmlns:xlink="http://www.w3.org/1999/xlink" x="0px" y="0px" width="350px" height="345px"
	 viewBox="0 0 350 345" enable-background="new 0 0 350 345" xml:space="preserve">
<sodipodi:namedview  id="namedview69" borderopacity="1" pagecolor="#ffffff" bordercolor="#666666" objecttolerance="10" gridtolerance="10" guidetolerance="10" showgrid="false" inkscape:zoom="0.24459283" inkscape:cx="588.73352" inkscape:cy="255.5" inkscape:pageopacity="0" inkscape:pageshadow="2" inkscape:window-maximized="1" inkscape:current-layer="Layer_1" inkscape:window-height="1056" inkscape:window-width="1855" inkscape:window-x="65" inkscape:window-y="24">
	</sodipodi:namedview>
<path id="path9" inkscape:connector-curvature="0" fill="#3B5169" d="M295.219,6.54h-16.91v120h-206v-120H26.221
	c-9.818,0-16.912,7.953-16.912,17.772v296.375c0,9.819,7.094,17.853,16.912,17.853h296.374c9.82,0,18.713-8.033,18.713-17.853
	V51.689L295.219,6.54z"/>
<path id="path11" inkscape:connector-curvature="0" fill="#2D3E50" d="M278.307,338.54V194.818c0-4.909-5.258-9.277-10.168-9.277
	H80.676c-4.91,0-8.367,4.368-8.367,9.277V338.54H278.307z"/>
<path id="path13" inkscape:connector-curvature="0" fill="#2D3E50" d="M272.604,17.54H75.988l-3.68-11.081v10.713v71.415v25.888
	v19.64c0,4.91,3.457,9.426,8.367,9.426H268.14c4.91,0,10.168-4.516,10.168-9.426v-19.64V88.587V17.172V6.459L272.604,17.54z"/>
<path id="path15" inkscape:connector-curvature="0" fill="#C7C7C7" d="M130.307,12.54v68.013v8.927v35.708
	c0,4.911,2.59,9.353,7.5,9.353h121.407c4.91,0,10.094-4.442,10.094-9.353V89.48v-8.927V12.54H130.307z M260.307,106.249
	c0,5.132-4.354,9.291-9.484,9.291h-24.418c-5.131,0-9.098-4.159-9.098-9.291V37.833c0-5.132,3.967-9.293,9.098-9.293h24.418
	c5.131,0,9.484,4.161,9.484,9.293V106.249z"/>
<path id="path17" inkscape:connector-curvature="0" fill="#212D3B" d="M260.307,37.833c0-5.132-4.16-9.292-9.291-9.292h-24.418
	c-5.131,0-9.291,4.16-9.291,9.292v68.416c0,5.132,4.16,9.292,9.291,9.292h24.418c5.131,0,9.291-4.16,9.291-9.292V37.833z
	 M255.307,107.712c0,2.667-2.162,4.828-4.828,4.828h-24.344c-2.666,0-4.828-2.162-4.828-4.828V38.368
	c0-2.667,2.162-4.828,4.828-4.828h24.344c2.666,0,4.828,2.162,4.828,4.828V107.712z"/>
<path id="path19" inkscape:connector-curvature="0" fill="#DC3545" d="M269.307,199.281c0-2.455-3.176-4.741-5.631-4.741H85.137
	c-2.455,0-3.83,2.286-3.83,4.741v40.259h188V199.281z"/>
<path id="path21" inkscape:connector-curvature="0" fill="#E6E6E6" d="M81.307,239.54v85.611c0,2.454,1.375,4.389,3.83,4.389
	h178.539c2.455,0,5.631-1.935,5.631-4.389V239.54H81.307L81.307,239.54z"/>
<rect id="rect23" x="102.307" y="272.54" fill="#B0B0B0" width="146" height="5"/>
<rect id="rect25" x="102.307" y="298.54" fill="#B0B0B0" width="146" height="6"/>
<path id="path27" inkscape:connector-curvature="0" fill="#2D3E50" d="M60.307,305.828c0,5.916-4.796,10.712-10.711,10.712H33.018
	c-5.915,0-10.711-4.796-10.711-10.712v-16.576c0-5.916,4.796-10.712,10.711-10.712h16.578c5.915,0,10.711,4.796,10.711,10.712
	V305.828z"/>
<path id="path29" inkscape:connector-curvature="0" fill="#2D3E50" d="M328.307,305.828c0,5.916-4.795,10.712-10.711,10.712h-16.578
	c-5.916,0-10.711-4.796-10.711-10.712v-16.576c0-5.916,4.795-10.712,10.711-10.712h16.578c5.916,0,10.711,4.796,10.711,10.712
	V305.828z"/>
<path id="path31" inkscape:connector-curvature="0" opacity="0.2" fill="#5D5D5D" enable-background="new    " d="M269.307,125.188
	V89.479v-8.927V12.54H128.881l130.917,121.491C264.707,134.031,269.307,130.098,269.307,125.188L269.307,125.188z"/>
<path id="path33" inkscape:connector-curvature="0" opacity="0.2" fill="#5D5D5D" enable-background="new    " d="M295.219,6.54
	h-16.91v10.632v71.415v25.888v12.498v7.142c0,4.91-5.258,9.426-10.168,9.426H136.835l201.292,186.855
	c1.73-2.75,3.181-6.237,3.181-9.708V51.689L295.219,6.54z"/>
<path id="path35" inkscape:connector-curvature="0" opacity="0.2" fill="#5D5D5D" enable-background="new    " d="M72.307,6.54
	H26.219c-9.516,0-17.052,7.51-17.528,16.915l63.616,58.957v-65.24V6.54z"/>
<polygon id="polygon37" opacity="0.2" fill="#5D5D5D" enable-background="new    " points="1122.193,159.734 1122.193,104 
	1177.467,104 "/>
</svg>
